{"title":"Rio Bravo(1959)MP-4[DaScubaDude]","uid":12438761,"size":1724837976,"categoryP":"video","categoryS":"movies","magnet":"?xt=urn:btih:4574444a23f2ac86a43305deb649ed49dbbb3239&amp;dn=Rio+Bravo%281959%29MP-4%5BDaScubaDude%5D&amp;tr=udp%3A%2F%2Ftracker.openbittorrent.com%3A80&amp;tr=udp%3A%2F%2Fopen.demonii.com%3A1337&amp;tr=udp%3A%2F%2Ftracker.coppersurfer.tk%3A6969&amp;tr=udp%3A%2F%2Fexodus.desync.com%3A6969","seeders":2,"leechers":0,"uploader":"dascuba","files":1,"time":1442550421,"description":"Rio Bravo (1959)\nNot Rated  |  141 min  |  Drama, Romance, Western  |  4 April 1959 (USA)\n8.1 Your rating:   -/10   Ratings: 8.1/10 from 39,867 users   \nReviews: 184 user | 64 critic\nA small-town sheriff in the American West enlists the help of a cripple, a drunk, and a young gunfighter in his efforts to hold in jail the brother of the local bad guy.\n\nDirector: Howard Hawks\nWriters: Jules Furthman (screenplay), Leigh Brackett (screenplay), 1 more credit Â»\nStars: John Wayne, Dean Martin, Ricky Nelson \n\n|General\nComplete name                            : C:Rio BravoRIO_BRAVO_D1_V2_Title1.mp4\nFormat                                   : MPEG-4\nFormat profile                           : Base Media\nCodec ID                                 : isom\nFile size                                : 1.61 GiB\nDuration                                 : 2h 20mn\nOverall bit rate mode                    : Constant\nOverall bit rate                         : 1 632 Kbps\nMovie name                               : RIO_BRAVO_D1_V2\nGenre                                    : Western\nWriting application                      : Lavf54.6.100\n\nVideo\nID                                       : 1\nFormat                                   : MPEG-4 Visual\nFormat settings, BVOP                    : No\nFormat settings, QPel                    : No\nFormat settings, GMC                     : No warppoints\nFormat settings, Matrix                  : Default (H.263)\nCodec ID                                 : 20\nDuration                                 : 2h 20mn\nBit rate mode                            : Constant\nBit rate                                 : 1 498 Kbps\nWidth                                    : 720 pixels\nHeight                                   : 404 pixels\nDisplay aspect ratio                     : 16:9\nFrame rate mode                          : Constant\nFrame rate                               : 29.970 fps\nColor space                              : YUV\nChroma subsampling                       : 4:2:0\nBit depth                                : 8 bits\nScan type                                : Progressive\nCompression mode                         : Lossy\nBits/(Pixel*Frame)                       : 0.172\nStream size                              : 1.47 GiB (92%)\nWriting library                          : Lavc54.23.100\n\nAudio\nID                                       : 2\nFormat                                   : MPEG Audio\nFormat version                           : Version 1\nFormat profile                           : Layer 3\nCodec ID                                 : 6B\nDuration                                 : 2h 20mn\nBit rate mode                            : Constant\nBit rate                                 : 128 Kbps\nChannel(s)                               : 2 channels\nChannel(s)_Original                      : 1 channel\nSampling rate                            : 44.1 KHz\nCompression mode                         : Lossy\nStream size                              : 129 MiB (8%)\nWriting library                          : LAME3.99.5","torrent":{"xt":"urn:btih:4574444a23f2ac86a43305deb649ed49dbbb3239","amp;dn":"Rio+Bravo%281959%29MP-4%5BDaScubaDude%5D","amp;tr":["udp%3A%2F%2Ftracker.openbittorrent.com%3A80","udp%3A%2F%2Fopen.demonii.com%3A1337","udp%3A%2F%2Ftracker.coppersurfer.tk%3A6969","udp%3A%2F%2Fexodus.desync.com%3A6969"],"infoHash":"4574444a23f2ac86a43305deb649ed49dbbb3239","infoHashBuffer":{"type":"Buffer","data":[69,116,68,74,35,242,172,134,164,51,5,222,182,73,237,73,219,187,50,57]},"announce":[],"urlList":[]}}